<svg width="32" height="28" viewBox="0 0 32 28" fill="none" xmlns="http://www.w3.org/2000/svg">
<path d="M9.97335 0.964466L7.27917 3.6468H2.65838C1.4356 3.6468 0.444336 4.63806 0.444336 5.86084V20.7983C0.444336 22.0211 1.4356 23.0123 2.65838 23.0123H29.341C30.5638 23.0123 31.555 22.0211 31.555 20.7983V2.22381C31.555 1.00103 30.5638 0.00976562 29.341 0.00976562H12.2854C11.4188 0.00976562 10.5875 0.353041 9.97335 0.964466Z" fill="#F5BD53"/>
<path d="M4.68845 2.10205H27.3105C28.3945 2.10205 29.2733 2.98086 29.2733 4.06492V14.0265C29.2733 15.1105 28.3945 15.9893 27.3105 15.9893H4.68845C3.60439 15.9893 2.72559 15.1105 2.72559 14.0265V4.06492C2.72558 2.98086 3.60439 2.10205 4.68845 2.10205Z" fill="#F0F0FC"/>
<path d="M17.8279 5.9425L15.1337 8.62483H2.65838C1.4356 8.62483 0.444336 9.61609 0.444336 10.8389V25.7763C0.444336 26.9991 1.4356 27.9904 2.65838 27.9904H29.341C30.5638 27.9904 31.555 26.9991 31.555 25.7763V7.20184C31.555 5.97906 30.5638 4.98779 29.341 4.98779H20.14C19.2734 4.98779 18.442 5.33107 17.8279 5.9425Z" fill="#FFDC6E"/>
<path d="M10.5957 24.7058H4.85435C4.10906 24.7058 3.50488 24.1016 3.50488 23.3563C3.50488 22.611 4.10906 22.0068 4.85435 22.0068H10.5957C11.341 22.0068 11.9452 22.611 11.9452 23.3563C11.9452 24.1016 11.341 24.7058 10.5957 24.7058Z" fill="#F7524B"/>
<path opacity="0.15" d="M10.5957 24.7058H4.85435C4.10906 24.7058 3.50488 24.1016 3.50488 23.3563C3.50488 22.611 4.10906 22.0068 4.85435 22.0068H10.5957C11.341 22.0068 11.9452 22.611 11.9452 23.3563C11.9452 24.1016 11.341 24.7058 10.5957 24.7058Z" fill="black"/>
</svg>
